<?xml version="1.0" encoding="UTF-8" standalone="no"?>
<svg xmlns:rdf="http://www.w3.org/1999/02/22-rdf-syntax-ns#" xmlns="http://www.w3.org/2000/svg" height="295.36" viewBox="0 0 312.79332 295.36373" width="312.79" version="1.1" xmlns:cc="http://creativecommons.org/ns#" xmlns:dc="http://purl.org/dc/elements/1.1/">
 <g transform="matrix(.25 0 0 .25 1.6111 1.3814)">
  <rect height="991" width="1237" y="-.0000073242" x="-.000048828" stroke-width="0" fill="#183a52"/>
  <path d="m1188.8 612.08 41.903 86.359m-1227-561.01c402.08-142.66 725.94 4.32 884.1 126.72" fill-opacity="0" stroke="#fff" stroke-width="7.8595"/>
  <rect height="154" width="1237" y="1015.5" x="-.000048828" fill="#b00"/>
  <g fill-rule="evenodd">
   <path d="m204.07 0.22656-204.06 973.29v16.857l0.29102-0.006 344.84-990.14h-141.07zm272.08 0.60156-473.77 990.73h5.3223l-0.00195-0.58984 171.53-270.9v-79.26h49.684l182.18-287.46v-86.947h56.781l166.8-265.58h-158.52zm310.54 277.31a163.8 161.53 0 0 0 -163.8 161.53 163.8 161.53 0 0 0 163.8 161.53 163.8 161.53 0 0 0 163.8 -161.53 163.8 161.53 0 0 0 -163.8 -161.53zm-365.45 0.66797v318.96h93.186v-103.29h91.924v-86.115h-90.914v-42.678h111.87l-6.8184-86.873h-198.5l-0.74804-0.002zm485.74 0.55273 91.424 153.74-94.822 163.93h100.35l45.365-78.391 46.85 79.012 103.15 0.0937-98.969-166.04 88.254-151.81h-101.43l-38.453 64.82-39.76-65.355h-101.96zm195.06 362.96c-6.4254 0.0366-13.242 0.46938-20.475 1.3359-51.68 6.1919-76.206 35.67-85.32 74.865-6.7169 50.185 8.047 65.172 23.004 78.629 18.776 16.893 45.202 24.876 74.029 33.041 17.764 5.031 38.375 10.252 35.551 30.113-1.3089 9.2052-7.1764 17.186-30.533 15.895-32.319 0.243-38.613-17.618-46.006-34.715l-69.01 15.475-0.004-0.004c9.0969 43.781 36.267 72.226 70.264 81.559 51.178 14.05 84.035 5.7198 110.88-10.871 35.256-21.787 53.587-66.883 38.779-115.09-6.171-20.089-21.314-35.816-44.582-44.436-14.339-5.311-28.469-12.285-63.252-19.484-14.347-2.969-25.506-10.441-24.258-20.912 0.809-6.7849 5.7315-21.624 30.113-21.33 19.635 0.236 28.028 16.624 36.807 29.693l64.408-20.492c-12.678-37.086-38.282-73.628-100.39-73.273zm-300.25 8.4707-33.877 171.9-35.969-171.48h-74.865l68.174 290.69h68.592l33.459-165.21 34.297 166.46h66.918l68.592-291.94h-60.646l-35.969 168.97-35.551-169.39h-63.154zm-347.21 0.83008v290.68h190.72v-66.5h-117.95v-50.607h94.941v-62.736h-94.523v-43.08h115.02v-67.754h-188.21zm-91 0.58008v146.79l-87.855-146.43h-84.643v290h74.285l0.35742-166.43 99.355 166.43h71.357v-290.36h-72.857zm806.39 393.26v101.25h36.25v-101.25h-36.25zm-944.39 0.6406v101.86h36.416v-47.588c0.177-4.403 3.5524-10.658 17.324-11.668 10.166-1.214 17.678 5.3725 17.678 10.783v48.473h36.238v-53.953c-1.109-13.29-8.311-23.162-35.178-23.863-12.271-0.32-24.204 1.4328-35.002 11.844h-0.88281v-35.887h-36.594zm-135.15 23.359c-31.766 0.7134-48.292 11.052-54.75 27.75-5.6452 15.32-3.8026 29.506 12.5 41.5 18.127 11.656 33.452 10.7 49 10.75 34.078-2.7315 41.997-15.346 46.5-29.25h-35.75c-3.8029 6.0434-7.7147 12.069-19.75 10.75-13.176-1.4439-18.923-11.261-18-21.75 1.7761-20.189 12.361-21.043 19.514-21.176 12.523-0.7263 14.643 4.9039 17.486 10.426h37.5c-5.4782-16.243-18.3-28.655-54.25-29zm950.04 0.8008c-41.553 0.087-56.33 20.319-56 40h-0.004c0 0.074 0.01 0.1467 0.01 0.2207 0.601 20.888 12.141 37.003 53.744 38.779 27.807 1.187 47.648-5.9832 58.75-24.75h-35.25c-4.3779 4.0063-6.6121 8.2523-20.25 7.75-13.638-0.502-19.977-7.2786-18.75-16.75h75.75c1.439-30.407-18.774-45.332-58-45.25zm-173.65 0.2246c-11.455 0.076-22.227 1.7185-32.875 11.25-0.92059 0.5524-2.125 1.408-2.125 0.25v-9.625h-35.75v74.5h36.75v-44.875c0-7.8635 8.2722-12.971 18.25-13.375 13.625-0.552 16.875 7.497 16.875 11.875v46.625h35.625v-54.625c0-11.017-8.7623-22.185-36.75-22zm-190.1 0.1c-11.455 0.076-22.227 1.7185-32.875 11.25-0.92059 0.5524-2.125 1.408-2.125 0.25v-9.625h-35.75v74.5h36.75v-44.875c0-7.8635 8.2723-12.971 18.25-13.375 13.625-0.552 16.875 7.497 16.875 11.875v46.625h35.625v-54.625c0-11.017-8.7623-22.185-36.75-22zm-207.43 0.1348c-23.036 1.2542-47.535 0.4587-54.623 24.041h33.412c3.1303-5.6484 8.8248-8.1291 17.146-7.7793 5.4819 0.2304 12.489 0.069 15.379 3.5371 3.3989 4.0807 1.9498 9.1871-9.3691 10.252-46.385 4.3644-60.434 11.302-60.104 25.633 0.23009 10.001 5.0488 18.583 22.627 22.273 11.035 2.3166 31.585 1.6639 47.377-8.8379 1.007-0.1794 1.3675-0.036 1.9434 0-0.3214 3.9588 0.56041 6.1126 2.1211 7.2481h37.123v-1.7676c-2.4359-1.7279-4.9465-3.3063-6.0098-7.7793v-40.305c-2.1984-20.729-20.863-26.931-47.023-26.516z" transform="translate(0 -.0075074)" fill="#fff"/>
   <path d="m1042.5 1086.2c-13.097 0.2574-19.984 5.9948-21.75 16.25h42c0.5701-10.645-6.8263-16.6-20.25-16.25zm-562.49 25.551c-10.174 4.2877-17.758 4.3265-26.5 5.625-5.5898 0.8303-8.4626 5.7988-8.125 9.125 0.29 2.8566 4.5311 6.5109 8.25 7.25 11.538 2.2932 20.696-0.4193 27.125-8 2.0493-2.4164 1.8712-6.7501 0.875-13.875l-1.625-0.125z" transform="translate(0 -.0075074)" fill="#b00"/>
   <path fill="#183a52" d="m757.9 363.66-0.2526 141.67c2.3151 17.361 15.337 27.672 27.022 27.779 22.727 0.20848 26.37-14.594 29.294-27.022v-138.14c-2.054-11.047-8.0542-26.152-27.022-27.274-10.557-0.62448-25.864 9.3859-29.042 22.981z"/>
  </g>
 </g>
</svg>
